<svg width="32" height="32" viewBox="0 0 32 32" fill="none" xmlns="http://www.w3.org/2000/svg">
<g clip-path="url(#clip0_194_1074)">
<g clip-path="url(#clip1_194_1074)">
<path d="M14.2109 11.7093L14.2109 14.9065C14.2109 15.2499 13.9326 15.5283 13.5892 15.5283L10.3919 15.5283C10.0485 15.5283 9.77017 15.2499 9.77017 14.9065L9.77017 11.7093C9.77017 11.3659 10.0485 11.0875 10.3919 11.0875L13.5892 11.0875C13.9326 11.0875 14.2109 11.3659 14.2109 11.7093Z" fill="#33EFDF"/>
</g>
</g>
<g clip-path="url(#clip2_194_1074)">
<g clip-path="url(#clip3_194_1074)">
<path d="M18.6514 7.26792L18.6514 10.4651C18.6514 10.8085 18.373 11.0869 18.0296 11.0869L14.8324 11.0869C14.489 11.0869 14.2106 10.8085 14.2106 10.4651L14.2106 7.26792C14.2106 6.92452 14.489 6.64614 14.8324 6.64614L18.0296 6.64614C18.373 6.64614 18.6514 6.92452 18.6514 7.26792Z" fill="#33EFDF"/>
</g>
</g>
<g clip-path="url(#clip4_194_1074)">
<g clip-path="url(#clip5_194_1074)">
<path d="M8.25943 19.9688L5.0622 19.9688C4.71881 19.9688 4.44043 19.6904 4.44043 19.347L4.44043 16.1498C4.44043 15.8064 4.71881 15.528 5.0622 15.528L8.25943 15.528C8.60282 15.528 8.8812 15.8064 8.8812 16.1498L8.8812 19.347C8.8812 19.6904 8.60282 19.9688 8.25943 19.9688Z" fill="#33EFDF"/>
</g>
</g>
<g clip-path="url(#clip6_194_1074)">
<g clip-path="url(#clip7_194_1074)">
<path d="M3.819 24.4102L0.621774 24.4102C0.278377 24.4102 4.86732e-08 24.1318 1.08715e-07 23.7884L6.67737e-07 20.5912C7.27778e-07 20.2478 0.278378 19.9694 0.621774 19.9694L3.819 19.9694C4.16239 19.9694 4.44077 20.2478 4.44077 20.5912L4.44077 23.7884C4.44077 24.1318 4.16239 24.4102 3.819 24.4102Z" fill="#33EFDF"/>
</g>
</g>
<g clip-path="url(#clip8_194_1074)">
<g clip-path="url(#clip9_194_1074)">
<path d="M27.5332 11.7093L27.5332 14.9065C27.5332 15.2499 27.2548 15.5283 26.9114 15.5283L23.7142 15.5283C23.3708 15.5283 23.0924 15.2499 23.0924 14.9065L23.0924 11.7093C23.0924 11.3659 23.3708 11.0875 23.7142 11.0875L26.9114 11.0875C27.2548 11.0875 27.5332 11.3659 27.5332 11.7093Z" fill="#33EFDF"/>
</g>
</g>
<g clip-path="url(#clip10_194_1074)">
<g clip-path="url(#clip11_194_1074)">
<path d="M31.9736 7.26792L31.9736 10.4651C31.9736 10.8085 31.6953 11.0869 31.3519 11.0869L28.1546 11.0869C27.8112 11.0869 27.5329 10.8085 27.5329 10.4651L27.5329 7.26792C27.5329 6.92452 27.8112 6.64614 28.1546 6.64614L31.3519 6.64614C31.6953 6.64614 31.9736 6.92452 31.9736 7.26792Z" fill="#33EFDF"/>
</g>
</g>
<g clip-path="url(#clip12_194_1074)">
<g clip-path="url(#clip13_194_1074)">
<path d="M21.5827 19.9688L18.3854 19.9688C18.042 19.9688 17.7637 19.6904 17.7637 19.347L17.7637 16.1498C17.7637 15.8064 18.0421 15.528 18.3854 15.528L21.5827 15.528C21.9261 15.528 22.2044 15.8064 22.2044 16.1498L22.2044 19.347C22.2044 19.6904 21.9261 19.9688 21.5827 19.9688Z" fill="#33EFDF"/>
</g>
</g>
<g clip-path="url(#clip14_194_1074)">
<g clip-path="url(#clip15_194_1074)">
<path d="M17.1413 24.4102L13.944 24.4102C13.6006 24.4102 13.3223 24.1318 13.3223 23.7884L13.3223 20.5912C13.3223 20.2478 13.6006 19.9694 13.944 19.9694L17.1413 19.9694C17.4847 19.9694 17.763 20.2478 17.763 20.5912L17.763 23.7884C17.763 24.1318 17.4847 24.4102 17.1413 24.4102Z" fill="#33EFDF"/>
</g>
</g>
<g clip-path="url(#clip16_194_1074)">
<g clip-path="url(#clip17_194_1074)">
<path d="M30.9079 23.9658L27.7106 23.9658C27.3672 23.9658 27.0889 23.6874 27.0889 23.344L27.0889 20.1468C27.0889 19.8034 27.3672 19.525 27.7106 19.525L30.9079 19.525C31.2513 19.525 31.5296 19.8034 31.5296 20.1468L31.5296 23.344C31.5296 23.6874 31.2513 23.9658 30.9079 23.9658Z" fill="#33EFDF"/>
</g>
</g>
<g clip-path="url(#clip18_194_1074)">
<g clip-path="url(#clip19_194_1074)">
<path d="M4.26333 10.6436L1.06611 10.6436C0.722713 10.6436 0.444336 10.3652 0.444336 10.0218L0.444337 6.82456C0.444337 6.48116 0.722714 6.20278 1.06611 6.20278L4.26333 6.20278C4.60673 6.20278 4.88511 6.48116 4.88511 6.82456L4.88511 10.0218C4.88511 10.3652 4.60673 10.6436 4.26333 10.6436Z" fill="#33EFDF"/>
</g>
</g>
<defs>
<clipPath id="clip0_194_1074">
<rect width="4.44079" height="5.32895" fill="white" transform="translate(9.76953 10.8848)"/>
</clipPath>
<clipPath id="clip1_194_1074">
<rect width="4.44079" height="5.32895" fill="white" transform="translate(9.76953 10.8848)"/>
</clipPath>
<clipPath id="clip2_194_1074">
<rect width="4.44079" height="5.32895" fill="white" transform="translate(14.2109 6.44434)"/>
</clipPath>
<clipPath id="clip3_194_1074">
<rect width="4.44079" height="5.32895" fill="white" transform="translate(14.2109 6.44434)"/>
</clipPath>
<clipPath id="clip4_194_1074">
<rect width="4.44079" height="5.32895" fill="white" transform="translate(4.44043 15.3262)"/>
</clipPath>
<clipPath id="clip5_194_1074">
<rect width="4.44079" height="5.32895" fill="white" transform="translate(4.44043 15.3262)"/>
</clipPath>
<clipPath id="clip6_194_1074">
<rect width="4.44079" height="5.32895" fill="white" transform="translate(0 19.7666)"/>
</clipPath>
<clipPath id="clip7_194_1074">
<rect width="4.44079" height="5.32895" fill="white" transform="translate(0 19.7666)"/>
</clipPath>
<clipPath id="clip8_194_1074">
<rect width="4.44079" height="5.32895" fill="white" transform="translate(23.0918 10.8848)"/>
</clipPath>
<clipPath id="clip9_194_1074">
<rect width="4.44079" height="5.32895" fill="white" transform="translate(23.0918 10.8848)"/>
</clipPath>
<clipPath id="clip10_194_1074">
<rect width="4.44079" height="5.32895" fill="white" transform="translate(27.5332 6.44434)"/>
</clipPath>
<clipPath id="clip11_194_1074">
<rect width="4.44079" height="5.32895" fill="white" transform="translate(27.5332 6.44434)"/>
</clipPath>
<clipPath id="clip12_194_1074">
<rect width="4.44079" height="5.32895" fill="white" transform="translate(17.7637 15.3262)"/>
</clipPath>
<clipPath id="clip13_194_1074">
<rect width="4.44079" height="5.32895" fill="white" transform="translate(17.7637 15.3262)"/>
</clipPath>
<clipPath id="clip14_194_1074">
<rect width="4.44079" height="5.32895" fill="white" transform="translate(13.3223 19.7666)"/>
</clipPath>
<clipPath id="clip15_194_1074">
<rect width="4.44079" height="5.32895" fill="white" transform="translate(13.3223 19.7666)"/>
</clipPath>
<clipPath id="clip16_194_1074">
<rect width="4.44079" height="5.32895" fill="white" transform="translate(27.0889 19.3223)"/>
</clipPath>
<clipPath id="clip17_194_1074">
<rect width="4.44079" height="5.32895" fill="white" transform="translate(27.0889 19.3223)"/>
</clipPath>
<clipPath id="clip18_194_1074">
<rect width="4.44079" height="5.32895" fill="white" transform="translate(0.444336 6)"/>
</clipPath>
<clipPath id="clip19_194_1074">
<rect width="4.44079" height="5.32895" fill="white" transform="translate(0.444336 6)"/>
</clipPath>
</defs>
</svg>
