<svg width="24" height="24" viewBox="0 0 24 24" fill="none" xmlns="http://www.w3.org/2000/svg">
<path d="M23.0626 14.25C23.0626 14.3992 23.0033 14.5422 22.8978 14.6477C22.7923 14.7532 22.6492 14.8125 22.5001 14.8125H20.8126V16.5C20.8126 16.6492 20.7533 16.7922 20.6478 16.8977C20.5423 17.0032 20.3992 17.0625 20.2501 17.0625C20.1009 17.0625 19.9578 17.0032 19.8523 16.8977C19.7468 16.7922 19.6876 16.6492 19.6876 16.5V14.8125H18.0001C17.8509 14.8125 17.7078 14.7532 17.6023 14.6477C17.4968 14.5422 17.4376 14.3992 17.4376 14.25C17.4376 14.1008 17.4968 13.9577 17.6023 13.8522C17.7078 13.7467 17.8509 13.6875 18.0001 13.6875H19.6876V12C19.6876 11.8508 19.7468 11.7077 19.8523 11.6022C19.9578 11.4967 20.1009 11.4375 20.2501 11.4375C20.3992 11.4375 20.5423 11.4967 20.6478 11.6022C20.7533 11.7077 20.8126 11.8508 20.8126 12V13.6875H22.5001C22.6492 13.6875 22.7923 13.7467 22.8978 13.8522C23.0033 13.9577 23.0626 14.1008 23.0626 14.25ZM5.25006 6.56247H6.93756V8.24997C6.93756 8.39916 6.99682 8.54223 7.10231 8.64772C7.2078 8.75321 7.35087 8.81247 7.50006 8.81247C7.64924 8.81247 7.79231 8.75321 7.8978 8.64772C8.00329 8.54223 8.06256 8.39916 8.06256 8.24997V6.56247H9.75006C9.89924 6.56247 10.0423 6.50321 10.1478 6.39772C10.2533 6.29223 10.3126 6.14916 10.3126 5.99997C10.3126 5.85079 10.2533 5.70771 10.1478 5.60223C10.0423 5.49674 9.89924 5.43747 9.75006 5.43747H8.06256V3.74997C8.06256 3.60079 8.00329 3.45771 7.8978 3.35223C7.79231 3.24674 7.64924 3.18747 7.50006 3.18747C7.35087 3.18747 7.2078 3.24674 7.10231 3.35223C6.99682 3.45771 6.93756 3.60079 6.93756 3.74997V5.43747H5.25006C5.10087 5.43747 4.9578 5.49674 4.85231 5.60223C4.74682 5.70771 4.68756 5.85079 4.68756 5.99997C4.68756 6.14916 4.74682 6.29223 4.85231 6.39772C4.9578 6.50321 5.10087 6.56247 5.25006 6.56247ZM17.2501 18.1875H16.3126V17.25C16.3126 17.1008 16.2533 16.9577 16.1478 16.8522C16.0423 16.7467 15.8992 16.6875 15.7501 16.6875C15.6009 16.6875 15.4578 16.7467 15.3523 16.8522C15.2468 16.9577 15.1876 17.1008 15.1876 17.25V18.1875H14.2501C14.1009 18.1875 13.9578 18.2467 13.8523 18.3522C13.7468 18.4577 13.6876 18.6008 13.6876 18.75C13.6876 18.8992 13.7468 19.0422 13.8523 19.1477C13.9578 19.2532 14.1009 19.3125 14.2501 19.3125H15.1876V20.25C15.1876 20.3992 15.2468 20.5422 15.3523 20.6477C15.4578 20.7532 15.6009 20.8125 15.7501 20.8125C15.8992 20.8125 16.0423 20.7532 16.1478 20.6477C16.2533 20.5422 16.3126 20.3992 16.3126 20.25V19.3125H17.2501C17.3992 19.3125 17.5423 19.2532 17.6478 19.1477C17.7533 19.0422 17.8126 18.8992 17.8126 18.75C17.8126 18.6008 17.7533 18.4577 17.6478 18.3522C17.5423 18.2467 17.3992 18.1875 17.2501 18.1875ZM20.4282 7.36778L7.36693 20.4281C7.24505 20.55 7.10036 20.6467 6.94111 20.7126C6.78186 20.7786 6.61118 20.8126 6.43881 20.8126C6.26643 20.8126 6.09575 20.7786 5.9365 20.7126C5.77725 20.6467 5.63256 20.55 5.51068 20.4281L3.57099 18.4884C3.4491 18.3665 3.35241 18.2218 3.28644 18.0626C3.22048 17.9033 3.18652 17.7327 3.18652 17.5603C3.18652 17.3879 3.22048 17.2172 3.28644 17.058C3.35241 16.8987 3.4491 16.754 3.57099 16.6322L16.6322 3.57185C16.7541 3.44996 16.8988 3.35327 17.0581 3.2873C17.2173 3.22133 17.388 3.18738 17.5604 3.18738C17.7327 3.18738 17.9034 3.22133 18.0627 3.2873C18.2219 3.35327 18.3666 3.44996 18.4885 3.57185L20.4282 5.51154C20.5501 5.63341 20.6468 5.77811 20.7127 5.93736C20.7787 6.09661 20.8126 6.26729 20.8126 6.43966C20.8126 6.61203 20.7787 6.78271 20.7127 6.94196C20.6468 7.10121 20.5501 7.24591 20.4282 7.36778ZM15.7041 10.5L13.5001 8.29591L4.36693 17.4281C4.3495 17.4455 4.33567 17.4662 4.32623 17.489C4.3168 17.5117 4.31194 17.5361 4.31194 17.5608C4.31194 17.5854 4.3168 17.6098 4.32623 17.6326C4.33567 17.6553 4.3495 17.676 4.36693 17.6934L6.30662 19.6322C6.34175 19.6671 6.38927 19.6867 6.43881 19.6867C6.48834 19.6867 6.53586 19.6671 6.57099 19.6322L15.7041 10.5ZM19.6322 6.30653L17.6935 4.36779C17.6761 4.35035 17.6554 4.33652 17.6326 4.32709C17.6099 4.31765 17.5855 4.31279 17.5608 4.31279C17.5362 4.31279 17.5118 4.31765 17.489 4.32709C17.4663 4.33652 17.4456 4.35035 17.4282 4.36779L14.2951 7.49997L16.5001 9.70497L19.6322 6.57185C19.6497 6.55443 19.6635 6.53376 19.6729 6.51099C19.6824 6.48823 19.6872 6.46383 19.6872 6.43919C19.6872 6.41455 19.6824 6.39015 19.6729 6.36739C19.6635 6.34463 19.6497 6.32395 19.6322 6.30653Z" fill="white"/>
</svg>
