<svg width="20" height="21" viewBox="0 0 20 21" fill="none" xmlns="http://www.w3.org/2000/svg">
<mask id="mask0_139_1711" style="mask-type:luminance" maskUnits="userSpaceOnUse" x="1" y="1" width="18" height="19">
<path d="M19 1.82129H1V19.8213H19V1.82129Z" fill="white"/>
</mask>
<g mask="url(#mask0_139_1711)">
<path d="M1 3.11054C1 2.39842 1.59175 1.82129 2.32187 1.82129H17.6781C18.4082 1.82129 19 2.39842 19 3.11054V18.5321C19 19.2442 18.4082 19.8213 17.6781 19.8213H2.32187C1.59175 19.8213 1 19.2442 1 18.5321V3.11054ZM6.56087 16.8896V8.76142H3.85975V16.8896H6.56087ZM5.21088 7.65104C6.1525 7.65104 6.73862 7.02779 6.73862 6.24704C6.72175 5.44942 6.15363 4.84304 5.22888 4.84304C4.30413 4.84304 3.7 5.45054 3.7 6.24704C3.7 7.02779 4.28613 7.65104 5.19287 7.65104H5.21088ZM10.7324 16.8896V12.3502C10.7324 12.1072 10.7504 11.8642 10.8224 11.6909C11.017 11.206 11.4614 10.7032 12.2084 10.7032C13.186 10.7032 13.5764 11.4479 13.5764 12.5414V16.8896H16.2775V12.2275C16.2775 9.73004 14.9455 8.56904 13.168 8.56904C11.7347 8.56904 11.0924 9.35654 10.7324 9.91116V9.93929H10.7144C10.7204 9.9299 10.7263 9.92052 10.7324 9.91116V8.76142H8.03237C8.06612 9.52417 8.03237 16.8896 8.03237 16.8896H10.7324Z" fill="white"/>
</g>
</svg>
