<svg width="25" height="24" viewBox="0 0 25 24" fill="none" xmlns="http://www.w3.org/2000/svg">
<path d="M17.375 13.5H15.5V10.5H17.375C18.0425 10.5 18.695 10.3021 19.2501 9.93121C19.8051 9.56036 20.2376 9.03326 20.4931 8.41656C20.7485 7.79986 20.8154 7.12126 20.6852 6.46657C20.5549 5.81189 20.2335 5.21052 19.7615 4.73852C19.2895 4.26651 18.6881 3.94508 18.0334 3.81485C17.3787 3.68463 16.7001 3.75146 16.0834 4.00691C15.4667 4.26235 14.9396 4.69494 14.5688 5.24995C14.1979 5.80497 14 6.45749 14 7.125V9H11V7.125C11 6.45749 10.8021 5.80497 10.4312 5.24995C10.0604 4.69494 9.53326 4.26235 8.91656 4.00691C8.29986 3.75146 7.62126 3.68463 6.96657 3.81485C6.31189 3.94508 5.71052 4.26651 5.23852 4.73852C4.76651 5.21052 4.44508 5.81189 4.31485 6.46657C4.18463 7.12126 4.25146 7.79986 4.50691 8.41656C4.76235 9.03326 5.19494 9.56036 5.74995 9.93121C6.30497 10.3021 6.95749 10.5 7.625 10.5H9.5V13.5H7.625C6.95749 13.5 6.30497 13.6979 5.74995 14.0688C5.19494 14.4396 4.76235 14.9667 4.50691 15.5834C4.25146 16.2001 4.18463 16.8787 4.31485 17.5334C4.44508 18.1881 4.76651 18.7895 5.23852 19.2615C5.71052 19.7335 6.31189 20.0549 6.96657 20.1852C7.62126 20.3154 8.29986 20.2485 8.91656 19.9931C9.53326 19.7376 10.0604 19.3051 10.4312 18.7501C10.8021 18.195 11 17.5425 11 16.875V15H14V16.875C14 17.5425 14.1979 18.195 14.5688 18.7501C14.9396 19.3051 15.4667 19.7376 16.0834 19.9931C16.7001 20.2485 17.3787 20.3154 18.0334 20.1852C18.6881 20.0549 19.2895 19.7335 19.7615 19.2615C20.2335 18.7895 20.5549 18.1881 20.6852 17.5334C20.8154 16.8787 20.7485 16.2001 20.4931 15.5834C20.2376 14.9667 19.8051 14.4396 19.2501 14.0688C18.695 13.6979 18.0425 13.5 17.375 13.5ZM15.5 7.125C15.5 6.75416 15.61 6.39165 15.816 6.08331C16.022 5.77497 16.3149 5.53464 16.6575 5.39273C17.0001 5.25081 17.3771 5.21368 17.7408 5.28603C18.1045 5.35838 18.4386 5.53695 18.7008 5.79918C18.9631 6.0614 19.1416 6.39549 19.214 6.75921C19.2863 7.12292 19.2492 7.49992 19.1073 7.84253C18.9654 8.18514 18.725 8.47798 18.4167 8.68401C18.1084 8.89004 17.7458 9 17.375 9H15.5V7.125ZM5.75 7.125C5.75 6.62772 5.94755 6.15081 6.29918 5.79918C6.65081 5.44755 7.12772 5.25 7.625 5.25C8.12228 5.25 8.5992 5.44755 8.95083 5.79918C9.30246 6.15081 9.5 6.62772 9.5 7.125V9H7.625C7.12772 9 6.65081 8.80246 6.29918 8.45083C5.94755 8.0992 5.75 7.62228 5.75 7.125ZM9.5 16.875C9.5 17.2458 9.39004 17.6084 9.18401 17.9167C8.97798 18.225 8.68514 18.4654 8.34253 18.6073C7.99992 18.7492 7.62292 18.7863 7.25921 18.714C6.89549 18.6416 6.5614 18.4631 6.29918 18.2008C6.03695 17.9386 5.85838 17.6045 5.78603 17.2408C5.71368 16.8771 5.75081 16.5001 5.89273 16.1575C6.03464 15.8149 6.27497 15.522 6.58331 15.316C6.89165 15.11 7.25416 15 7.625 15H9.5V16.875ZM11 10.5H14V13.5H11V10.5ZM17.375 18.75C16.8777 18.75 16.4008 18.5525 16.0492 18.2008C15.6975 17.8492 15.5 17.3723 15.5 16.875V15H17.375C17.8723 15 18.3492 15.1975 18.7008 15.5492C19.0525 15.9008 19.25 16.3777 19.25 16.875C19.25 17.3723 19.0525 17.8492 18.7008 18.2008C18.3492 18.5525 17.8723 18.75 17.375 18.75Z" fill="#D1D1D1"/>
</svg>
