<svg width="24" height="24" viewBox="0 0 24 24" fill="none" xmlns="http://www.w3.org/2000/svg">
<path d="M20.97 6.2017L12.72 1.68764C12.4996 1.56584 12.2518 1.50195 12 1.50195C11.7482 1.50195 11.5004 1.56584 11.28 1.68764L3.03 6.20358C2.7944 6.33249 2.59772 6.52229 2.46052 6.75316C2.32331 6.98404 2.25061 7.24751 2.25 7.51608V16.4823C2.25061 16.7509 2.32331 17.0144 2.46052 17.2452C2.59772 17.4761 2.7944 17.6659 3.03 17.7948L11.28 22.3108C11.5004 22.4326 11.7482 22.4965 12 22.4965C12.2518 22.4965 12.4996 22.4326 12.72 22.3108L20.97 17.7948C21.2056 17.6659 21.4023 17.4761 21.5395 17.2452C21.6767 17.0144 21.7494 16.7509 21.75 16.4823V7.51701C21.7499 7.24797 21.6774 6.98391 21.5402 6.7525C21.403 6.52108 21.206 6.33084 20.97 6.2017ZM12 3.00014L19.5319 7.12514L12 11.2501L4.46812 7.12514L12 3.00014ZM3.75 8.43764L11.25 12.542V20.5848L3.75 16.4833V8.43764ZM12.75 20.5848V12.5458L20.25 8.43764V16.4795L12.75 20.5848Z" fill="#D1D1D1"/>
</svg>
