<svg width="549" height="407" viewBox="0 0 549 407" fill="none" xmlns="http://www.w3.org/2000/svg">
<path d="M317.816 4.82732L294.816 18.2952C288.448 22.0241 284.531 28.8758 284.531 36.2864V268.241C284.531 275.652 288.448 282.504 294.816 286.232L492.619 402.056C499.057 405.828 507.012 405.828 513.45 402.056L536.451 388.59C542.819 384.861 546.735 378.008 546.735 370.6V138.643C546.735 131.233 542.819 124.381 536.451 120.652L338.647 4.82732C332.21 1.05756 324.254 1.05756 317.816 4.82732Z" fill="#1D1E20" stroke="white" stroke-opacity="0.11" stroke-width="3.46973"/>
<path d="M322.238 102.875L311.272 109.249C307.538 111.419 305.238 115.426 305.238 119.764V260.935C305.238 265.24 307.505 269.224 311.196 271.405L430.694 342.025C434.528 344.29 439.291 344.256 443.091 341.928L454.672 334.839C458.284 332.625 460.482 328.677 460.468 324.424L460.001 183.239C459.987 178.926 457.699 174.944 453.991 172.778L334.345 102.889C330.603 100.703 325.985 100.698 322.238 102.875Z" stroke="white" stroke-opacity="0.11" stroke-width="3.46973"/>
<path opacity="0.4" d="M501.89 151.396V404.687" stroke="white" stroke-opacity="0.11" stroke-width="2.6023" stroke-linecap="round"/>
<path opacity="0.4" d="M436.339 189.557V342.225" stroke="white" stroke-opacity="0.11" stroke-width="2.6023" stroke-linecap="round"/>
<path opacity="0.4" d="M287.98 26.4883L502.008 151.398L543.284 127.338" stroke="white" stroke-opacity="0.11" stroke-width="2.6023" stroke-linecap="round" stroke-linejoin="bevel"/>
<path opacity="0.4" d="M308.678 116.695L436.983 189.56L457.03 177.87" stroke="white" stroke-opacity="0.11" stroke-width="2.6023" stroke-linecap="round" stroke-linejoin="bevel"/>
<path d="M35.4394 4.82732L12.4389 18.2952C6.07115 22.0241 2.1543 28.8758 2.1543 36.2864V268.241C2.1543 275.652 6.07115 282.504 12.4389 286.232L210.242 402.056C216.68 405.828 224.635 405.828 231.073 402.056L254.074 388.59C260.443 384.861 264.358 378.008 264.358 370.6V138.643C264.358 131.233 260.443 124.381 254.074 120.652L56.2705 4.82732C49.8327 1.05756 41.8772 1.05756 35.4394 4.82732Z" fill="#1D1E20" stroke="white" stroke-opacity="0.11" stroke-width="3.46973"/>
<path d="M39.8615 102.875L28.8948 109.249C25.1611 111.419 22.8613 115.426 22.8613 119.764V260.935C22.8613 265.24 25.128 269.224 28.8189 271.405L148.317 342.025C152.151 344.29 156.915 344.256 160.714 341.928L172.295 334.839C175.907 332.625 178.105 328.677 178.091 324.424L177.625 183.239C177.61 178.926 175.322 174.944 171.614 172.778L51.968 102.889C48.2265 100.703 43.6079 100.698 39.8615 102.875Z" stroke="white" stroke-opacity="0.11" stroke-width="3.46973"/>
<path opacity="0.4" d="M219.513 151.396V404.687" stroke="white" stroke-opacity="0.11" stroke-width="2.6023" stroke-linecap="round"/>
<path opacity="0.4" d="M153.962 189.557V342.225" stroke="white" stroke-opacity="0.11" stroke-width="2.6023" stroke-linecap="round"/>
<path opacity="0.4" d="M5.60352 26.4883L219.631 151.398L260.907 127.338" stroke="white" stroke-opacity="0.11" stroke-width="2.6023" stroke-linecap="round" stroke-linejoin="bevel"/>
<path opacity="0.4" d="M26.3008 116.695L154.607 189.56L174.653 177.87" stroke="white" stroke-opacity="0.11" stroke-width="2.6023" stroke-linecap="round" stroke-linejoin="bevel"/>
</svg>
