<svg width="29" height="29" viewBox="0 0 29 29" fill="none" xmlns="http://www.w3.org/2000/svg">
<g clip-path="url(#clip0_194_1071)">
<g clip-path="url(#clip1_194_1071)">
<path d="M4.51953 9.25229L4.51953 12.4495C4.51953 12.7929 4.24115 13.0713 3.89776 13.0713L0.700533 13.0713C0.357137 13.0713 0.0787597 12.7929 0.0787598 12.4495L0.0787602 9.25229C0.0787602 8.90889 0.357138 8.63052 0.700534 8.63052L3.89776 8.63052C4.24115 8.63052 4.51953 8.9089 4.51953 9.25229Z" fill="#0000FF"/>
</g>
</g>
<g clip-path="url(#clip2_194_1071)">
<g clip-path="url(#clip3_194_1071)">
<path d="M20.5068 9.25229L20.5068 12.4495C20.5068 12.7929 20.2285 13.0713 19.8851 13.0713L16.6878 13.0713C16.3444 13.0713 16.0661 12.7929 16.0661 12.4495L16.0661 9.25229C16.0661 8.90889 16.3444 8.63052 16.6878 8.63052L19.8851 8.63052C20.2285 8.63052 20.5068 8.9089 20.5068 9.25229Z" fill="#0000FF"/>
</g>
</g>
<g clip-path="url(#clip4_194_1071)">
<g clip-path="url(#clip5_194_1071)">
<path d="M28.5 1.056L28.5 4.25323C28.5 4.59662 28.2216 4.875 27.8782 4.875L24.681 4.875C24.3376 4.875 24.0592 4.59662 24.0592 4.25323L24.0592 1.056C24.0592 0.712605 24.3376 0.434228 24.681 0.434228L27.8782 0.434228C28.2216 0.434228 28.5 0.712606 28.5 1.056Z" fill="#0000FF"/>
</g>
</g>
<g clip-path="url(#clip6_194_1071)">
<g clip-path="url(#clip7_194_1071)">
<path d="M12.5127 1.25815L12.5127 4.45537C12.5127 4.79877 12.2343 5.07715 11.8909 5.07715L8.6937 5.07715C8.3503 5.07715 8.07192 4.79877 8.07192 4.45537L8.07192 1.25815C8.07192 0.914754 8.3503 0.636376 8.6937 0.636376L11.8909 0.636377C12.2343 0.636377 12.5127 0.914754 12.5127 1.25815Z" fill="#0000FF"/>
</g>
</g>
<g clip-path="url(#clip8_194_1071)">
<g clip-path="url(#clip9_194_1071)">
<path d="M11.8913 21.0645L8.69404 21.0645C8.35064 21.0645 8.07227 20.7861 8.07227 20.4427L8.07227 17.2455C8.07227 16.9021 8.35064 16.6237 8.69404 16.6237L11.8913 16.6237C12.2347 16.6237 12.513 16.9021 12.513 17.2455L12.513 20.4427C12.513 20.7861 12.2347 21.0645 11.8913 21.0645Z" fill="#0000FF"/>
</g>
</g>
<g clip-path="url(#clip10_194_1071)">
<g clip-path="url(#clip11_194_1071)">
<path d="M3.8981 28.8555L0.700875 28.8555C0.357479 28.8555 0.0791016 28.5771 0.0791017 28.2337L0.0791022 25.0365C0.0791023 24.6931 0.35748 24.4147 0.700876 24.4147L3.8981 24.4147C4.2415 24.4147 4.51987 24.6931 4.51987 25.0365L4.51987 28.2337C4.51987 28.5771 4.2415 28.8555 3.8981 28.8555Z" fill="#0000FF"/>
</g>
</g>
<rect x="24.0596" y="20.8623" width="4.44079" height="4.44079" rx="0.888158" transform="rotate(-90 24.0596 20.8623)" fill="#0000FF"/>
<rect x="16.0654" y="28.8555" width="4.44079" height="4.44079" rx="0.888158" transform="rotate(-90 16.0654 28.8555)" fill="#0000FF"/>
<defs>
<clipPath id="clip0_194_1071">
<rect width="4.44079" height="5.32895" fill="white" transform="translate(0.0791016 8.42773)"/>
</clipPath>
<clipPath id="clip1_194_1071">
<rect width="4.44079" height="5.32895" fill="white" transform="translate(0.0791016 8.42773)"/>
</clipPath>
<clipPath id="clip2_194_1071">
<rect width="4.44079" height="5.32895" fill="white" transform="translate(16.0654 8.42773)"/>
</clipPath>
<clipPath id="clip3_194_1071">
<rect width="4.44079" height="5.32895" fill="white" transform="translate(16.0654 8.42773)"/>
</clipPath>
<clipPath id="clip4_194_1071">
<rect width="4.44079" height="4.44079" fill="white" transform="translate(24.0596 0.43457)"/>
</clipPath>
<clipPath id="clip5_194_1071">
<rect width="4.44079" height="4.44079" fill="white" transform="translate(24.0596 0.43457)"/>
</clipPath>
<clipPath id="clip6_194_1071">
<rect width="4.44079" height="5.32895" fill="white" transform="translate(8.07227 0.43457)"/>
</clipPath>
<clipPath id="clip7_194_1071">
<rect width="4.44079" height="5.32895" fill="white" transform="translate(8.07227 0.43457)"/>
</clipPath>
<clipPath id="clip8_194_1071">
<rect width="4.44079" height="5.32895" fill="white" transform="translate(8.07227 16.4219)"/>
</clipPath>
<clipPath id="clip9_194_1071">
<rect width="4.44079" height="5.32895" fill="white" transform="translate(8.07227 16.4219)"/>
</clipPath>
<clipPath id="clip10_194_1071">
<rect width="4.44079" height="4.44079" fill="white" transform="translate(0.0791016 24.415)"/>
</clipPath>
<clipPath id="clip11_194_1071">
<rect width="4.44079" height="4.44079" fill="white" transform="translate(0.0791016 24.415)"/>
</clipPath>
</defs>
</svg>
