<svg width="16" height="16" viewBox="0 0 16 16" fill="none" xmlns="http://www.w3.org/2000/svg">
<g clip-path="url(#clip0_125_617)">
<path d="M12.5003 3.99988V10.4999C12.5003 10.6325 12.4476 10.7597 12.3538 10.8534C12.2601 10.9472 12.1329 10.9999 12.0003 10.9999C11.8677 10.9999 11.7405 10.9472 11.6467 10.8534C11.553 10.7597 11.5003 10.6325 11.5003 10.4999V5.20675L4.35403 12.3536C4.26021 12.4474 4.13296 12.5002 4.00028 12.5002C3.8676 12.5002 3.74035 12.4474 3.64653 12.3536C3.55271 12.2598 3.5 12.1326 3.5 11.9999C3.5 11.8672 3.55271 11.7399 3.64653 11.6461L10.7934 4.49988H5.50028C5.36767 4.49988 5.24049 4.4472 5.14672 4.35343C5.05296 4.25966 5.00028 4.13249 5.00028 3.99988C5.00028 3.86727 5.05296 3.74009 5.14672 3.64632C5.24049 3.55256 5.36767 3.49988 5.50028 3.49988H12.0003C12.1329 3.49988 12.2601 3.55256 12.3538 3.64632C12.4476 3.74009 12.5003 3.86727 12.5003 3.99988Z" fill="#FFFFFF"/>
</g>
<defs>
<clipPath id="clip0_125_617">
<rect width="16" height="16" fill="white"/>
</clipPath>
</defs>
</svg>
