<svg width="12" height="13" viewBox="0 0 12 13" fill="none" xmlns="http://www.w3.org/2000/svg">
<path d="M8.51528 6.76528L4.76528 10.5153C4.73044 10.5501 4.68907 10.5778 4.64355 10.5966C4.59803 10.6155 4.54924 10.6252 4.49996 10.6252C4.45069 10.6252 4.4019 10.6155 4.35638 10.5966C4.31086 10.5778 4.26949 10.5501 4.23465 10.5153C4.19981 10.4804 4.17217 10.4391 4.15332 10.3936C4.13446 10.348 4.12476 10.2992 4.12476 10.25C4.12476 10.2007 4.13446 10.1519 4.15332 10.1064C4.17217 10.0609 4.19981 10.0195 4.23465 9.98465L7.71981 6.49996L4.23465 3.01528C4.16429 2.94491 4.12476 2.84948 4.12476 2.74996C4.12476 2.65045 4.16429 2.55502 4.23465 2.48465C4.30502 2.41429 4.40045 2.37476 4.49996 2.37476C4.59948 2.37476 4.69491 2.41429 4.76528 2.48465L8.51528 6.23465C8.55014 6.26948 8.5778 6.31084 8.59667 6.35636C8.61555 6.40189 8.62526 6.45068 8.62526 6.49996C8.62526 6.54925 8.61555 6.59804 8.59667 6.64357C8.5778 6.68909 8.55014 6.73045 8.51528 6.76528Z" fill="#554F4F"/>
</svg>
