<svg width="125" height="27" viewBox="0 0 125 27" fill="none" xmlns="http://www.w3.org/2000/svg">
<path d="M26.5531 17.6048C26.7553 17.4723 26.9918 17.4017 27.2336 17.4017H29.3169V14.5057H26.4067V16.273C26.4067 16.6918 26.1957 17.0823 25.8454 17.3117L24.1896 18.3965C23.9874 18.5289 23.7509 18.5995 23.5092 18.5995H22.7878C22.2482 18.5995 21.7703 18.251 21.6055 17.7372L18.997 9.60887C18.9576 9.48624 18.9376 9.35824 18.9376 9.22945V6.98551H16.0274V9.88152H17.5757C18.1153 9.88152 18.5931 10.23 18.758 10.7438L21.3665 18.8722C21.4058 18.9948 21.4258 19.1228 21.4258 19.2516V20.3248C21.4258 20.7686 21.189 21.1787 20.8045 21.4004L16.7071 23.7635C16.5185 23.8723 16.3045 23.9295 16.0868 23.9295H13.9653V26.8213H16.8755V25.1003C16.8755 24.6564 17.1124 24.2464 17.4969 24.0246L21.5942 21.6616C21.7829 21.5528 21.9968 21.4955 22.2146 21.4955H24.336V19.7282C24.336 19.3095 24.547 18.919 24.8973 18.6895L26.5531 17.6048ZM9.04474 23.9167L12.9388 21.413C13.2942 21.1845 13.509 20.791 13.509 20.3685V19.5769C13.509 19.2469 13.3777 18.9306 13.1441 18.6976L11.41 16.9685C11.1773 16.7364 10.862 16.6061 10.5333 16.6061H8.59271V13.7101H11.5029V15.633C11.5029 15.9629 11.6342 16.2793 11.8678 16.5123L13.6019 18.2413C13.8346 18.4734 14.1499 18.6038 14.4786 18.6038H16.4192V21.4955H14.3307C14.0922 21.4955 13.8587 21.5642 13.6582 21.6934L9.48385 24.383V26.8213C6.96114 26.8213 4.56757 25.8246 2.78531 24.0536C1.00305 22.2826 0 19.9042 0 17.3975C0 14.8907 1.00305 12.5123 2.78531 10.7413C4.23178 9.30403 6.10014 8.36293 8.12348 8.07205C8.41621 6.06152 9.36331 4.20499 10.8098 2.76768C12.592 0.996708 14.9856 0 17.5083 0C20.031 0 22.4246 0.996708 24.2069 2.76768C25.6533 4.20499 26.6004 6.06152 26.8932 8.07205C28.9165 8.36293 30.7849 9.30403 32.2313 10.7413C34.0136 12.5123 35.0167 14.8907 35.0167 17.3975C35.0167 19.9042 34.0136 22.2826 32.2313 24.0536C30.4491 25.8246 28.0555 26.8213 25.5328 26.8213H21.0126V23.9295H25.5328C27.2806 23.9295 28.938 23.2365 30.1736 22.0088C31.4091 20.7811 32.1022 19.1342 32.1022 17.4017C32.1022 15.6693 31.4048 14.0181 30.1736 12.7904C29.2652 11.8878 28.1158 11.2675 26.863 11.0066C26.4282 10.9167 25.9805 10.8697 25.5371 10.8697H24.082V9.42381C24.082 8.9832 24.0347 8.53832 23.9443 8.10627C23.6817 6.85718 23.0574 5.71503 22.1491 4.81671C20.9136 3.589 19.2561 2.89601 17.5083 2.89601C15.7605 2.89601 14.1031 3.589 12.8676 4.81671C11.9592 5.71931 11.335 6.86145 11.0724 8.10627C10.982 8.53832 10.9346 8.9832 10.9346 9.42381V10.8697H9.47954C9.03613 10.8697 8.58842 10.9125 8.15362 11.0066C6.89657 11.2675 5.74714 11.8878 4.8431 12.7904C3.60757 14.0181 2.91015 15.665 2.91015 17.4017C2.91015 19.1385 3.60757 20.7854 4.8431 22.0088C5.971 23.1296 7.45622 23.8055 9.04045 23.9124L9.04474 23.9167Z" fill="white"/>
<path d="M43.4587 23.024V20.4939L53.5862 7.76373H43.6458V4.72766H58.1289V7.25772L48.0281 19.9879H58.2625V23.024H43.4587Z" fill="white"/>
<path d="M63.0008 7.17782C61.9586 7.17782 61.1303 6.29896 61.1303 5.31357C61.1303 4.32818 61.9586 3.47595 63.0008 3.47595C64.0162 3.47595 64.8446 4.32818 64.8446 5.31357C64.8446 6.29896 64.0162 7.17782 63.0008 7.17782ZM61.344 23.024V9.25514H64.6041V23.024H61.344Z" fill="white"/>
<path d="M74.8875 23.3436C70.8793 23.3436 67.4856 20.0412 67.4856 16.1262C67.4856 12.2113 70.8793 8.93555 74.8875 8.93555C78.8957 8.93555 82.2894 12.2113 82.2894 16.1262C82.2894 20.0412 78.8957 23.3436 74.8875 23.3436ZM74.8875 20.5738C77.1588 20.5738 79.0828 18.5498 79.0828 16.1262C79.0828 13.7293 77.1588 11.7053 74.8875 11.7053C72.5894 11.7053 70.6655 13.7293 70.6655 16.1262C70.6655 18.5498 72.5894 20.5738 74.8875 20.5738Z" fill="white"/>
<path d="M92.6523 8.93555C95.6719 8.93555 97.7829 11.146 97.7829 14.262V23.024H94.6297V14.9012C94.6297 13.0369 93.4273 11.7053 91.7171 11.7053C90.0069 11.7053 88.5907 12.8505 88.3769 14.3152V23.024H85.1168V9.25514H88.3769V11.0928C89.232 9.81441 90.8353 8.93555 92.6523 8.93555Z" fill="white"/>
<path d="M115.404 23.024L114.015 19.7216H105.143L103.754 23.024H100.039L107.708 4.72766H111.423L119.092 23.024H115.404ZM106.346 16.8453H112.812L109.579 9.14861L106.346 16.8453Z" fill="white"/>
<path d="M123.072 7.17782C122.03 7.17782 121.202 6.29896 121.202 5.31357C121.202 4.32818 122.03 3.47595 123.072 3.47595C124.088 3.47595 124.916 4.32818 124.916 5.31357C124.916 6.29896 124.088 7.17782 123.072 7.17782ZM121.415 23.024V9.25514H124.675V23.024H121.415Z" fill="white"/>
</svg>
